<svg width="20px" height="19px" viewBox="0 0 20 19" version="1.1" xmlns="http://www.w3.org/2000/svg" xmlns:xlink="http://www.w3.org/1999/xlink">
    <!-- Generator: Sketch 43.2 (39069) - http://www.bohemiancoding.com/sketch -->
    <desc>Created with Sketch.</desc>
    <defs></defs>
    <g id="Page-1" stroke="none" stroke-width="1" fill="none" fill-rule="evenodd">
        <g id="webdesign-2015" transform="translate(-409.000000, -2545.000000)" fill="#FFFFFF">
            <g id="Group-160" transform="translate(69.000000, 33.500000)">
                <path d="M351.845,2518.188 L355.329,2518.188 L355.329,2517.159 L351.845,2517.159 L351.845,2518.188 Z M352.225,2522.5 L352.414,2522.5 C353.765,2522.5 355.116,2522.499 356.468,2522.501 C356.568,2522.501 356.629,2522.492 356.634,2522.366 C356.659,2521.668 356.593,2520.985 356.297,2520.342 C356.02,2519.738 355.585,2519.288 354.956,2519.042 C354.298,2518.785 353.617,2518.762 352.932,2518.877 C352.046,2519.025 351.352,2519.477 350.904,2520.266 C350.409,2521.138 350.266,2522.072 350.494,2523.05 C350.718,2524.008 351.255,2524.732 352.195,2525.074 C353.253,2525.458 354.328,2525.447 355.367,2524.995 C356.194,2524.635 356.584,2523.888 356.544,2523.072 L355.213,2523.072 C355.168,2523.072 355.123,2523.077 355.078,2523.08 C355.006,2523.568 354.707,2523.83 354.252,2523.914 C354.004,2523.96 353.743,2523.984 353.491,2523.966 C352.689,2523.91 352.178,2523.317 352.225,2522.5 L352.225,2522.5 Z M342.944,2525.153 L343.119,2525.153 C344.496,2525.153 345.873,2525.152 347.25,2525.154 C347.647,2525.155 348.037,2525.102 348.413,2524.979 C349.097,2524.754 349.632,2524.346 349.877,2523.646 C350.141,2522.895 350.128,2522.138 349.819,2521.4 C349.634,2520.958 349.303,2520.671 348.825,2520.572 C348.749,2520.556 348.672,2520.549 348.595,2520.538 C348.658,2520.494 348.72,2520.473 348.782,2520.451 C349.226,2520.294 349.523,2519.993 349.668,2519.543 C349.787,2519.173 349.783,2518.796 349.717,2518.42 C349.601,2517.755 349.255,2517.251 348.647,2516.936 C348.216,2516.713 347.752,2516.653 347.278,2516.652 C345.886,2516.648 344.493,2516.65 343.101,2516.651 C343.052,2516.651 343.002,2516.655 342.944,2516.658 L342.944,2525.153 Z M349.785,2530.359 C344.613,2530.359 340.415,2526.157 340.418,2520.983 C340.42,2515.818 344.62,2511.622 349.786,2511.623 C354.959,2511.623 359.157,2515.824 359.154,2520.999 C359.151,2526.163 354.952,2530.359 349.785,2530.359 L349.785,2530.359 Z" id="Fill-155"></path>
            </g>
        </g>
    </g>
</svg>
