<svg width="17px" height="17px" viewBox="0 0 17 17" version="1.1" xmlns="http://www.w3.org/2000/svg" xmlns:xlink="http://www.w3.org/1999/xlink">
    <!-- Generator: Sketch 43.2 (39069) - http://www.bohemiancoding.com/sketch -->
    <desc>Created with Sketch.</desc>
    <defs></defs>
    <g id="Page-1" stroke="none" stroke-width="1" fill="none" fill-rule="evenodd">
        <g id="webdesign-2015" transform="translate(-364.000000, -2546.000000)" fill="#FFFFFF">
            <g id="Group-160" transform="translate(69.000000, 33.500000)">
                <path d="M309.6628,2512.6118 C311.0298,2512.6118 311.9888,2513.5478 311.9908,2514.9078 C311.9958,2518.9898 311.9958,2523.0728 311.9908,2527.1558 C311.9888,2528.4888 311.0178,2529.4528 309.6928,2529.4578 C308.6328,2529.4618 307.5738,2529.4508 306.5148,2529.4648 C306.2528,2529.4678 306.1678,2529.3878 306.1698,2529.1278 C306.1798,2527.3518 306.1838,2525.5758 306.1768,2523.7988 C306.1758,2523.5308 306.2708,2523.4608 306.5248,2523.4688 C307.0538,2523.4858 307.5838,2523.4668 308.1128,2523.4758 C308.4408,2523.4818 308.6038,2523.3198 308.6418,2523.0118 C308.7118,2522.4428 308.7828,2521.8738 308.8418,2521.3048 C308.8868,2520.8838 308.7308,2520.7198 308.2968,2520.7178 C307.6908,2520.7138 307.0838,2520.7078 306.4768,2520.7208 C306.2418,2520.7258 306.1658,2520.6398 306.1708,2520.4148 C306.1818,2519.9288 306.1658,2519.4428 306.1788,2518.9578 C306.1968,2518.2548 306.5168,2517.9408 307.2278,2517.9188 C307.5688,2517.9078 307.9118,2517.9188 308.2538,2517.9128 C308.6308,2517.9068 308.7728,2517.7678 308.7778,2517.3908 C308.7828,2516.9058 308.7788,2516.4198 308.7788,2515.9348 C308.7778,2515.6608 308.6458,2515.4698 308.3698,2515.4718 C307.5888,2515.4768 306.7948,2515.4268 306.0298,2515.5488 C304.5708,2515.7818 303.7238,2516.6718 303.5228,2518.1398 C303.4238,2518.8668 303.4528,2519.6138 303.4548,2520.3518 C303.4558,2520.6398 303.3818,2520.7438 303.0848,2520.7228 C302.7218,2520.6968 302.3568,2520.7108 301.9928,2520.7188 C301.6738,2520.7268 301.5198,2520.8728 301.5168,2521.1858 C301.5098,2521.7928 301.5128,2522.3998 301.5238,2523.0068 C301.5288,2523.3238 301.6768,2523.4648 301.9978,2523.4718 C302.3838,2523.4788 302.7708,2523.4818 303.1568,2523.4708 C303.3588,2523.4648 303.4568,2523.5108 303.4558,2523.7418 C303.4478,2525.5628 303.4458,2527.3828 303.4498,2529.2038 C303.4508,2529.4148 303.3648,2529.4618 303.1738,2529.4618 C301.2208,2529.4568 299.2678,2529.4718 297.3148,2529.4518 C296.1288,2529.4398 295.1488,2528.4388 295.1468,2527.2528 C295.1388,2523.1038 295.1388,2518.9548 295.1468,2514.8058 C295.1488,2513.6008 296.1448,2512.6178 297.3488,2512.6138 C299.4228,2512.6068 301.4978,2512.6118 303.5718,2512.6118 C305.6018,2512.6118 307.6328,2512.6108 309.6628,2512.6118 Z" id="Fill-147"></path>
            </g>
        </g>
    </g>
</svg>
