<svg width="19px" height="18px" viewBox="0 0 19 18" version="1.1" xmlns="http://www.w3.org/2000/svg" xmlns:xlink="http://www.w3.org/1999/xlink">
    <!-- Generator: Sketch 43.2 (39069) - http://www.bohemiancoding.com/sketch -->
    <desc>Created with Sketch.</desc>
    <defs></defs>
    <g id="Page-1" stroke="none" stroke-width="1" fill="none" fill-rule="evenodd">
        <g id="webdesign-2015" transform="translate(-407.000000, -3159.000000)" fill-rule="nonzero" fill="#FFFFFF">
            <g id="Layer_4" transform="translate(20.000000, 521.000000)">
                <g id="Group" transform="translate(364.000000, 2638.000000)">
                    <g transform="translate(23.000000, 0.000000)" id="Shape">
                        <path d="M0.9,9.5 C0.9,8.3 0.9,7.2 1,6 C1,4.9 1.2,3.9 1.9,3 C2.6,1.9 3.7,1.3 5,1.1 C5.9,0.9 6.9,0.9 7.8,0.9 L12.3,0.9 C13.2,0.9 14.1,0.9 15,1.2 C16.7,1.8 17.7,2.9 18,4.7 C18.1,5.5 18.2,6.3 18.2,7 L18.2,12.1 C18.2,13 18.2,13.9 17.9,14.8 C17.3,16.5 16.2,17.5 14.4,17.8 C13.6,17.9 12.8,18 12.1,18 L7,18 C6.1,18 5.2,18 4.3,17.7 C2.6,17.1 1.7,15.9 1.3,14.2 C1.1,13.4 1.1,12.6 1.1,11.9 C0.9,11.2 0.9,10.3 0.9,9.5 L0.9,9.5 Z M16.5,9.5 L16.5,9.5 L16.5,7.3 C16.5,6.6 16.4,5.8 16.4,5.1 C16.2,3.8 15.3,2.9 14.1,2.6 C13.3,2.4 12.5,2.4 11.7,2.4 L7.4,2.4 C6.7,2.4 5.9,2.4 5.2,2.6 C4,2.8 3.1,3.5 2.8,4.7 C2.6,5.4 2.6,6.2 2.6,6.9 L2.6,10.4 C2.6,11.5 2.6,12.5 2.7,13.6 C2.8,15 3.6,16 5.1,16.3 C5.9,16.5 6.7,16.5 7.5,16.5 L11.8,16.5 C12.5,16.5 13.3,16.5 14,16.3 C15.2,16.1 16.1,15.4 16.4,14.2 C16.5,13.8 16.6,13.4 16.6,12.9 C16.5,11.9 16.5,10.7 16.5,9.5 Z"></path>
                        <path d="M9.4,13.9 C6.9,13.9 5,11.9 5,9.5 C5,7.1 7,5.1 9.4,5.1 C11.8,5.1 13.8,7.1 13.8,9.6 C13.8,12 11.9,13.9 9.4,13.9 Z M9.4,6.7 C7.8,6.7 6.5,8 6.5,9.6 C6.5,11.2 7.8,12.5 9.4,12.5 C11,12.5 12.2,11.2 12.2,9.6 C12.3,8 11,6.7 9.4,6.7 Z"></path>
                        <path d="M15.1,5 C15.1,5.6 14.6,6 14.1,6 C13.5,6 13.1,5.5 13.1,5 C13.1,4.4 13.6,4 14.1,4 C14.6,3.9 15,4.4 15.1,5 Z"></path>
                    </g>
                </g>
            </g>
        </g>
    </g>
</svg>
