<?xml version="1.0" encoding="utf-8"?>
<!-- Generator: Adobe Illustrator 16.0.0, SVG Export Plug-In . SVG Version: 6.00 Build 0)  -->
<!DOCTYPE svg PUBLIC "-//W3C//DTD SVG 1.1//EN" "http://www.w3.org/Graphics/SVG/1.1/DTD/svg11.dtd">
<svg version="1.1" id="图层_1" xmlns="http://www.w3.org/2000/svg" xmlns:xlink="http://www.w3.org/1999/xlink" x="0px" y="0px"
	 width="330.515px" height="129.564px" viewBox="34.042 321.691 330.515 129.564"
	 enable-background="new 34.042 321.691 330.515 129.564" xml:space="preserve">
<g id="XMLID_88_">
	<g id="XMLID_140_">
		<g>

				<line fill="none" stroke="#666666" stroke-width="0.8312" stroke-linecap="round" stroke-linejoin="bevel" x1="85.614" y1="381.646" x2="85.614" y2="384.949"/>

				<line fill="none" stroke="#666666" stroke-width="0.8312" stroke-linecap="round" stroke-linejoin="bevel" stroke-dasharray="2.2557,2.2557" x1="85.614" y1="390.792" x2="85.614" y2="410.861"/>
			<polyline fill="none" stroke="#666666" stroke-width="0.8312" stroke-linecap="round" stroke-linejoin="bevel" points="
				85.614,413.656 85.614,416.451 85.614,416.959 88.409,418.737 			"/>

				<line fill="none" stroke="#666666" stroke-width="0.8312" stroke-linecap="round" stroke-linejoin="bevel" stroke-dasharray="2.5385,2.5385" x1="93.998" y1="421.786" x2="113.813" y2="432.964"/>

				<line fill="none" stroke="#666666" stroke-width="0.8312" stroke-linecap="round" stroke-linejoin="bevel" x1="116.608" y1="434.488" x2="119.402" y2="436.267"/>
		</g>
	</g>
	<g id="XMLID_138_">
		<g>

				<line fill="none" stroke="#666666" stroke-width="0.8312" stroke-linecap="round" stroke-linejoin="round" x1="34.805" y1="418.991" x2="37.599" y2="417.467"/>

				<line fill="none" stroke="#666666" stroke-width="0.8312" stroke-linecap="round" stroke-linejoin="round" stroke-dasharray="2.9013,2.9013" x1="44.204" y1="413.656" x2="79.517" y2="393.841"/>

				<line fill="none" stroke="#666666" stroke-width="0.8312" stroke-linecap="round" stroke-linejoin="round" x1="82.565" y1="392.062" x2="85.614" y2="390.538"/>
		</g>
	</g>

		<line id="XMLID_137_" fill="none" stroke="#666666" stroke-width="0.8312" stroke-linecap="round" stroke-linejoin="round" x1="85.106" y1="381.646" x2="85.106" y2="349.891"/>

		<line id="XMLID_136_" fill="none" stroke="#666666" stroke-width="0.8312" stroke-linecap="round" stroke-linejoin="round" x1="91.457" y1="451.255" x2="91.457" y2="385.203"/>

		<line id="XMLID_135_" fill="none" stroke="#666666" stroke-width="0.8312" stroke-linecap="round" stroke-linejoin="round" x1="34.042" y1="419.499" x2="34.042" y2="353.447"/>

		<polyline id="XMLID_134_" fill="none" stroke="#666666" stroke-width="0.8312" stroke-linecap="round" stroke-linejoin="round" points="
		120.165,369.452 148.364,353.447 148.364,419.499 	"/>

		<line id="XMLID_131_" fill="none" stroke="#666666" stroke-width="0.8312" stroke-linecap="round" stroke-linejoin="round" x1="91.457" y1="353.447" x2="91.457" y2="321.691"/>
	<polyline id="XMLID_130_" fill="none" stroke="#666666" stroke-width="0.8312" stroke-linecap="round" points="127.278,431.186
		127.278,395.111 139.726,387.998 139.726,424.326 	"/>

		<polyline id="XMLID_129_" fill="none" stroke="#000000" stroke-width="1.5" stroke-linecap="round" stroke-linejoin="round" points="
		147.855,419.499 91.457,451.255 35.059,419.499 	"/>

		<polyline id="XMLID_128_" fill="none" stroke="#000000" stroke-width="1.5" stroke-linecap="round" stroke-linejoin="round" points="
		85.868,349.636 119.656,369.452 91.457,385.203 35.059,353.447 91.457,321.691 147.855,353.447 	"/>
	<g>
		<path d="M197.649,385.711c-7.622,0-13.719-6.097-13.719-13.718c0-7.622,6.097-13.973,13.719-13.973
			c4.827,0,9.146,2.286,11.686,6.351l-1.016,0.762c-2.541-3.557-5.843-5.843-10.416-5.843c-7.113,0-12.702,5.589-12.702,12.703
			c0,6.859,5.589,12.702,12.448,12.702s12.448-5.843,12.448-12.702h-12.448v-1.271h12.448c1.016,0,1.524,0.254,1.524,1.524
			C211.622,379.614,205.016,385.711,197.649,385.711z"/>
		<path d="M216.702,375.295v10.162h-1.27v-10.162c0-4.318,1.27-7.113,6.097-7.113v1.271
			C217.464,369.452,216.702,371.738,216.702,375.295z"/>
		<path d="M238.805,385.457v-4.065c-1.778,2.794-4.319,4.319-7.622,4.319c-4.827,0-8.892-4.064-8.892-8.892
			c0-5.081,3.811-8.892,8.892-8.892c3.048,0,6.097,1.524,7.622,4.319c1.27,2.032,1.27,3.811,1.27,6.097v7.113H238.805z
			 M231.183,368.944c-4.319,0-7.622,3.557-7.622,7.875c0,4.065,3.557,7.622,7.622,7.622c4.319,0,7.622-3.557,7.622-7.622
			C238.805,372.5,235.502,368.944,231.183,368.944z"/>
		<path d="M256.334,385.457v-9.654c0-1.524,0-2.794-0.762-4.319s-2.541-2.541-4.319-2.541s-3.303,1.016-4.319,2.287
			c-0.762,1.27-0.762,2.794-0.762,4.319v9.654h-1.27v-9.654c0-1.524,0-3.303,1.016-4.827c1.016-1.778,3.302-3.048,5.335-3.048
			c2.032,0,4.064,1.016,5.335,2.794c1.016,1.524,1.016,3.048,1.016,4.827v9.654h-1.27V385.457z"/>
		<path d="M278.182,381.392c-1.524,2.541-4.573,4.319-7.621,4.319c-5.081,0-8.892-4.064-8.892-8.892
			c0-4.827,3.811-8.892,8.892-8.892c3.302,0,6.097,1.524,7.621,4.319v-13.719h1.271v16.767
			C279.452,377.582,279.198,379.36,278.182,381.392z M270.561,368.944c-4.319,0-7.622,3.557-7.622,7.622
			c0,4.064,3.303,7.875,7.622,7.875s7.621-3.557,7.621-7.622C278.182,372.5,274.625,368.944,270.561,368.944z"/>
	</g>
	<g>
		<path d="M197.649,415.688c-0.254,0.508-0.508,1.778-1.271,1.778s-1.016-1.271-1.27-1.778l-7.875-25.405h1.27l7.875,24.897
			l8.13-24.897h1.27L197.649,415.688z"/>
		<path d="M209.081,395.873c-0.508,0-1.016-0.508-1.016-1.016c0-0.508,0.508-1.016,1.016-1.016c0.508,0,1.016,0.508,1.016,1.016
			C210.097,395.365,209.589,395.873,209.081,395.873z M208.319,417.213v-17.275h1.27v17.275H208.319z"/>
		<path d="M217.973,417.467c-1.524,0-2.541-0.254-3.811-1.016v-1.271c1.27,0.508,2.54,1.271,4.064,1.271
			c2.032,0,3.811-1.524,3.811-3.812c0-4.826-7.875-3.048-7.875-8.383c0-2.795,2.54-4.573,5.081-4.573
			c1.271,0,2.033,0.254,3.303,0.762v1.271c-1.016-0.508-2.287-1.016-3.303-1.016c-1.778,0-3.811,1.27-3.811,3.303
			c0,4.572,7.875,2.794,7.875,8.383C223.308,415.688,221.021,417.467,217.973,417.467z"/>
		<path d="M239.566,414.673c-1.016,1.778-3.302,3.048-5.335,3.048c-2.032,0-4.064-1.016-5.335-3.048
			c-1.016-1.524-1.016-3.049-1.016-4.827v-9.908h1.271v9.654c0,1.524,0,2.794,0.762,4.318c0.762,1.524,2.54,2.541,4.318,2.541
			s3.303-0.763,4.319-2.287c0.762-1.27,0.762-2.794,0.762-4.318v-9.654h1.271v9.654C240.583,411.37,240.329,413.148,239.566,414.673
			z"/>
		<path d="M260.907,417.213v-4.064c-1.778,2.794-4.319,4.318-7.622,4.318c-4.827,0-8.892-4.064-8.892-8.892
			c0-5.081,3.811-8.892,8.892-8.892c3.049,0,6.097,1.524,7.622,4.319c1.27,2.032,1.27,3.811,1.27,6.097v7.113H260.907z
			 M253.285,400.954c-4.319,0-7.622,3.557-7.622,7.875c0,4.065,3.557,7.622,7.622,7.622c4.319,0,7.622-3.557,7.622-7.622
			C260.907,404.511,257.604,400.954,253.285,400.954z"/>
		<path d="M267.258,417.213v-26.929h1.27v26.929H267.258z"/>
		<path d="M274.625,395.873c-0.508,0-1.016-0.508-1.016-1.016c0-0.508,0.508-1.016,1.016-1.016c0.508,0,1.017,0.508,1.017,1.016
			C275.642,395.365,275.387,395.873,274.625,395.873z M274.117,417.213v-17.275h1.27v17.275H274.117z"/>
		<path d="M280.468,417.213c-0.508,0-1.27,0-1.27-0.762c0-0.509,0.508-1.271,0.762-1.524l8.892-13.719h-9.653v-1.271h9.908
			c0.508,0,1.27,0,1.27,0.763c0,0.508-0.508,1.016-0.762,1.524l-8.892,13.718h9.654v1.271H280.468z"/>
		<path d="M309.176,417.213v-4.064c-1.778,2.794-4.319,4.318-7.622,4.318c-4.827,0-8.892-4.064-8.892-8.892
			c0-5.081,3.811-8.892,8.892-8.892c3.048,0,6.097,1.524,7.622,4.319c1.271,2.032,1.271,3.811,1.271,6.097v7.113H309.176z
			 M301.3,400.954c-4.319,0-7.622,3.557-7.622,7.875c0,4.065,3.557,7.622,7.622,7.622c4.319,0,7.622-3.557,7.622-7.622
			C308.922,404.511,305.619,400.954,301.3,400.954z"/>
		<path d="M315.526,410.354v-9.146h-3.048v-1.271h3.048v-6.097h1.271v6.097h4.827v1.271h-4.827v8.892
			c0,3.557,0.763,5.843,4.827,5.843v1.271C316.797,417.213,315.526,414.673,315.526,410.354z"/>
		<path d="M325.688,395.873c-0.508,0-1.016-0.508-1.016-1.016c0-0.508,0.508-1.016,1.016-1.016s1.017,0.508,1.017,1.016
			C326.705,395.365,326.196,395.873,325.688,395.873z M324.927,417.213v-17.275h1.27v17.275H324.927z"/>
		<path d="M339.153,417.467c-4.827,0-8.892-4.064-8.892-8.892s3.811-8.892,8.892-8.892c4.827,0,8.892,4.064,8.892,8.892
			S343.98,417.467,339.153,417.467z M339.153,400.954c-4.319,0-7.621,3.557-7.621,7.875c0,4.065,3.302,7.622,7.621,7.622
			c4.318,0,7.621-3.557,7.621-7.622C346.774,404.511,343.472,400.954,339.153,400.954z"/>
		<path d="M363.288,417.213v-9.653c0-1.524,0-2.795-0.763-4.319c-0.762-1.524-2.54-2.54-4.318-2.54s-3.303,1.016-4.319,2.54
			c-0.762,1.271-0.762,2.795-0.762,4.319v9.653h-1.271v-9.653c0-1.524,0-3.303,1.017-4.827c1.016-1.778,3.303-3.049,5.335-3.049
			s4.064,1.017,5.335,2.795c1.016,1.524,1.016,3.048,1.016,4.826v9.654L363.288,417.213L363.288,417.213z"/>
	</g>
</g>
</svg>
