<svg id="图层_1" data-name="图层 1" xmlns="http://www.w3.org/2000/svg" viewBox="0 0 130.52 52.51"><defs><style>.cls-1,.cls-2,.cls-3,.cls-4,.cls-5,.cls-6,.cls-7{fill:none;stroke:#fff;stroke-linecap:round;}.cls-1,.cls-2,.cls-3{stroke-linejoin:bevel;}.cls-1,.cls-2,.cls-3,.cls-4,.cls-5,.cls-6{stroke-width:0.83px;}.cls-2{stroke-dasharray:2.26 2.26;}.cls-3{stroke-dasharray:2.54 2.54;}.cls-4,.cls-5,.cls-7{stroke-linejoin:round;}.cls-5{stroke-dasharray:2.9 2.9;}.cls-7{stroke-width:1.5px;}.cls-8{fill:#fff;}</style></defs><title>logo_white</title><g id="_Group_" data-name="&lt;Group&gt;"><g id="_Group_2" data-name="&lt;Group&gt;"><line class="cls-1" x1="20.68" y1="24.36" x2="20.68" y2="25.68"/><line class="cls-2" x1="20.68" y1="27.93" x2="20.68" y2="35.83"/><polyline class="cls-1" points="20.68 36.95 20.68 38.05 20.68 38.27 21.83 38.92"/><line class="cls-3" x1="24.04" y1="40.17" x2="31.78" y2="44.53"/><line class="cls-1" x1="32.88" y1="45.15" x2="34.03" y2="45.8"/></g><g id="_Group_3" data-name="&lt;Group&gt;"><line class="cls-4" x1="0.68" y1="39.05" x2="1.82" y2="38.4"/><line class="cls-5" x1="4.35" y1="36.98" x2="18.26" y2="29.16"/><line class="cls-4" x1="19.53" y1="28.45" x2="20.68" y2="27.8"/></g><line id="_Path_" data-name="&lt;Path&gt;" class="cls-4" x1="20.45" y1="24.36" x2="20.45" y2="11.86"/><line id="_Path_2" data-name="&lt;Path&gt;" class="cls-4" x1="22.99" y1="51.76" x2="22.99" y2="25.75"/><line id="_Path_3" data-name="&lt;Path&gt;" class="cls-4" x1="0.43" y1="39.26" x2="0.43" y2="13.25"/><polyline id="_Path_4" data-name="&lt;Path&gt;" class="cls-4" points="34.28 19.5 45.4 13.25 45.4 39.26"/><line id="_Path_5" data-name="&lt;Path&gt;" class="cls-4" x1="22.99" y1="13.25" x2="22.99" y2="0.75"/><polyline id="_Path_6" data-name="&lt;Path&gt;" class="cls-6" points="37.05 43.86 37.05 29.62 41.94 26.87 41.94 41.11"/><polyline id="_Path_7" data-name="&lt;Path&gt;" class="cls-7" points="45.23 39.26 22.99 51.76 0.75 39.26"/><polyline id="_Path_8" data-name="&lt;Path&gt;" class="cls-7" points="20.75 11.72 34.11 19.5 22.99 25.75 0.75 13.25 22.99 0.75 45.23 13.25"/><path class="cls-8" d="M77.8,73.94A5.46,5.46,0,0,1,77.8,63a5.37,5.37,0,0,1,4.56,2.49l-.4.27a4.89,4.89,0,0,0-4.13-2.31,5,5,0,1,0,4.92,5H77.83V68h4.86c.43,0,.57.11.57.56A5.46,5.46,0,0,1,77.8,73.94Z" transform="translate(-13.01 -47.96)"/><path class="cls-8" d="M85.32,69.77v4h-.49v-4c0-1.71.52-2.75,2.39-2.75v.47C85.64,67.48,85.32,68.37,85.32,69.77Z" transform="translate(-13.01 -47.96)"/><path class="cls-8" d="M94,73.76V72.15a3.41,3.41,0,0,1-3,1.74,3.52,3.52,0,0,1,0-7,3.55,3.55,0,0,1,3,1.68A4.39,4.39,0,0,1,94.5,71v2.78Zm-3-6.44a3,3,0,0,0,0,6.09,3,3,0,0,0,0-6.09Z" transform="translate(-13.01 -47.96)"/><path class="cls-8" d="M100.94,73.76V70a3.19,3.19,0,0,0-.3-1.67,1.94,1.94,0,0,0-3.37-.06A3.29,3.29,0,0,0,96.92,70v3.75h-.49V69.92A3.71,3.71,0,0,1,96.81,68a2.56,2.56,0,0,1,2.13-1.17A2.47,2.47,0,0,1,101,68a3.35,3.35,0,0,1,.41,1.92v3.84Z" transform="translate(-13.01 -47.96)"/><path class="cls-8" d="M109.47,72.2a3.56,3.56,0,0,1-3,1.69,3.52,3.52,0,0,1,0-7,3.38,3.38,0,0,1,3,1.73V63.21H110v6.56A4.35,4.35,0,0,1,109.47,72.2Zm-3-4.88a3,3,0,1,0,3,3.06A3,3,0,0,0,106.46,67.32Z" transform="translate(-13.01 -47.96)"/><path class="cls-8" d="M77.82,85.71c-.08.23-.17.69-.48.69s-.42-.48-.49-.7l-3.14-10h.52l3.11,9.84,3.19-9.84h.52Z" transform="translate(-13.01 -47.96)"/><path class="cls-8" d="M82.27,77.87a.39.39,0,0,1-.4-.4.39.39,0,0,1,.4-.39.37.37,0,0,1,.39.37A.4.4,0,0,1,82.27,77.87ZM82,86.3V79.54h.49V86.3Z" transform="translate(-13.01 -47.96)"/><path class="cls-8" d="M85.8,86.43A3,3,0,0,1,84.31,86v-.53a3.74,3.74,0,0,0,1.6.46,1.51,1.51,0,0,0,1.52-1.45c0-1.87-3.11-1.17-3.11-3.34a1.88,1.88,0,0,1,2.05-1.76,2.52,2.52,0,0,1,1.26.3v.52a3.15,3.15,0,0,0-1.34-.36,1.4,1.4,0,0,0-1.47,1.28c0,1.84,3.08,1.08,3.08,3.31A2,2,0,0,1,85.8,86.43Z" transform="translate(-13.01 -47.96)"/><path class="cls-8" d="M94.28,85.27a2.47,2.47,0,0,1-2.14,1.19,2.43,2.43,0,0,1-2.07-1.16,3.43,3.43,0,0,1-.41-1.89V79.54h.49v3.77a3.27,3.27,0,0,0,.3,1.68,1.91,1.91,0,0,0,1.71,1,1.86,1.86,0,0,0,1.67-1,3.17,3.17,0,0,0,.34-1.72V79.54h.49v3.85A3.68,3.68,0,0,1,94.28,85.27Z" transform="translate(-13.01 -47.96)"/><path class="cls-8" d="M102.71,86.3V84.69a3.41,3.41,0,0,1-3,1.74,3.52,3.52,0,0,1,0-7,3.53,3.53,0,0,1,3,1.68,4.39,4.39,0,0,1,.49,2.44V86.3Zm-3-6.44a3,3,0,0,0,0,6.09,3,3,0,0,0,0-6.09Z" transform="translate(-13.01 -47.96)"/><path class="cls-8" d="M105.2,86.3V75.75h.49V86.3Z" transform="translate(-13.01 -47.96)"/><path class="cls-8" d="M108.14,77.87a.39.39,0,0,1-.39-.4.38.38,0,0,1,.39-.39.38.38,0,0,1,.4.37A.41.41,0,0,1,108.14,77.87Zm-.25,8.43V79.54h.49V86.3Z" transform="translate(-13.01 -47.96)"/><path class="cls-8" d="M110.36,86.3c-.19,0-.49,0-.49-.28a1.35,1.35,0,0,1,.31-.62L113.67,80H109.9v-.48h3.89c.19,0,.49,0,.49.27a1.19,1.19,0,0,1-.28.6l-3.52,5.43h3.85v.46Z" transform="translate(-13.01 -47.96)"/><path class="cls-8" d="M121.66,86.3V84.69a3.42,3.42,0,0,1-3,1.74,3.52,3.52,0,0,1,0-7,3.51,3.51,0,0,1,3,1.68,4.3,4.3,0,0,1,.49,2.44V86.3Zm-3-6.44a3,3,0,0,0,0,6.09,3,3,0,0,0,0-6.09Z" transform="translate(-13.01 -47.96)"/><path class="cls-8" d="M124.22,83.56V80h-1.15v-.48h1.15V77.17h.48v2.37h1.91V80H124.7v3.5c0,1.44.31,2.29,1.91,2.32v.46C124.74,86.3,124.22,85.29,124.22,83.56Z" transform="translate(-13.01 -47.96)"/><path class="cls-8" d="M128.16,77.87a.39.39,0,0,1-.39-.4.38.38,0,0,1,.39-.39.38.38,0,0,1,.4.37A.41.41,0,0,1,128.16,77.87Zm-.25,8.43V79.54h.49V86.3Z" transform="translate(-13.01 -47.96)"/><path class="cls-8" d="M133.49,86.43a3.52,3.52,0,1,1,3.5-3.52A3.49,3.49,0,0,1,133.49,86.43Zm0-6.57a3,3,0,1,0,3,3A3,3,0,0,0,133.49,79.86Z" transform="translate(-13.01 -47.96)"/><path class="cls-8" d="M143,86.3V82.53a3.18,3.18,0,0,0-.3-1.66,2,2,0,0,0-1.71-1,1.92,1.92,0,0,0-1.66,1,3.29,3.29,0,0,0-.35,1.74V86.3h-.49V82.46a3.71,3.71,0,0,1,.38-1.89A2.53,2.53,0,0,1,141,79.4a2.47,2.47,0,0,1,2.08,1.14,3.35,3.35,0,0,1,.41,1.92V86.3Z" transform="translate(-13.01 -47.96)"/></g></svg>